<?xml version="1.0" encoding="UTF-8" standalone="no"?>
<svg
   xmlns:dc="http://purl.org/dc/elements/1.1/"
   xmlns:cc="http://creativecommons.org/ns#"
   xmlns:rdf="http://www.w3.org/1999/02/22-rdf-syntax-ns#"
   xmlns:svg="http://www.w3.org/2000/svg"
   xmlns="http://www.w3.org/2000/svg"
   viewBox="0 0 528.73333 253.03772"
   height="253.03772"
   width="528.73334"
   xml:space="preserve"
   id="svg10"
   version="1.1"><metadata
     id="metadata16"><rdf:RDF><cc:Work
         rdf:about=""><dc:format>image/svg+xml</dc:format><dc:type
           rdf:resource="http://purl.org/dc/dcmitype/StillImage" /><dc:title></dc:title></cc:Work></rdf:RDF></metadata><defs
     id="defs14"><clipPath
       id="clipPath26"
       clipPathUnits="userSpaceOnUse"><path
         id="path24"
         d="M 0,595.28 H 841.89 V 0 H 0 Z" /></clipPath></defs><g
     transform="matrix(1.3333333,0,0,-1.3333333,-296.89346,524.32399)"
     id="g18"><g
       id="g20"><g
         clip-path="url(#clipPath26)"
         id="g22"><g
           transform="translate(285.8625,393.2429)"
           id="g28"><path
             id="path30"
             style="fill:#007cbb;fill-opacity:1;fill-rule:nonzero;stroke:none"
             d="m 0,0 c 7.22,0 13.376,-0.926 18.457,-2.773 5.081,-1.857 9.218,-4.417 12.397,-7.7 3.186,-3.286 5.482,-7.136 6.891,-11.55 1.408,-4.417 2.113,-9.195 2.113,-14.324 0,-4.423 -1.106,-8.954 -3.299,-13.614 -2.213,-4.654 -5.758,-8.414 -10.666,-11.282 4.908,-2.865 8.453,-6.594 10.666,-11.187 2.193,-4.6 3.299,-9.399 3.299,-14.414 0,-4.54 -0.705,-9.018 -2.113,-13.435 -1.409,-4.413 -3.705,-8.324 -6.891,-11.727 -3.179,-3.402 -7.28,-6.149 -12.301,-8.238 -5.032,-2.09 -11.202,-3.133 -18.553,-3.133 h -63.192 v 21.49 H 3.307 c 4.29,0 7.773,1.43 10.466,4.297 2.694,2.865 4.045,6.561 4.045,11.101 0,1.907 -0.397,3.73 -1.192,5.461 -0.802,1.729 -1.838,3.253 -3.129,4.565 -1.292,1.314 -2.782,2.357 -4.5,3.137 -1.713,0.773 -3.555,1.163 -5.513,1.163 h -66.676 v 21.666 H 3.307 c 4.29,0 7.773,1.403 10.466,4.21 2.694,2.803 4.045,6.236 4.045,10.297 0,1.905 -0.397,3.725 -1.192,5.456 -0.802,1.73 -1.838,3.254 -3.129,4.569 -1.292,1.312 -2.782,2.356 -4.5,3.134 -1.713,0.776 -3.555,1.166 -5.513,1.166 H -63.192 V 0 Z" /></g><path
           id="path32"
           style="fill:#007cbb;fill-opacity:1;fill-rule:nonzero;stroke:none"
           d="m 341.113,393.243 h 20.679 v -18.369 h -20.679 z" /><path
           id="path34"
           style="fill:#007cbb;fill-opacity:1;fill-rule:nonzero;stroke:none"
           d="m 341.113,367.595 h 20.679 v -97.73 h -20.679 z" /><g
           transform="translate(478.0509,269.8655)"
           id="g36"><path
             id="path38"
             style="fill:#007cbb;fill-opacity:1;fill-rule:nonzero;stroke:none"
             d="m 0,0 -34.445,98.131 c -0.827,2.267 -2.37,3.403 -4.624,3.403 -2.249,0 -3.788,-1.136 -4.617,-3.403 L -78.131,0 h -22.735 l 38.007,107.444 c 1.891,5.367 4.907,9.366 9.054,11.995 4.141,2.622 9.064,3.938 14.736,3.938 5.691,0 10.594,-1.316 14.743,-3.938 4.14,-2.629 7.161,-6.628 9.055,-11.995 L 22.732,0 Z" /></g><g
           transform="translate(619.2199,305.8596)"
           id="g40"><path
             id="path42"
             style="fill:#007cbb;fill-opacity:1;fill-rule:nonzero;stroke:none"
             d="m 0,0 c 0,-11.942 -3.416,-20.923 -10.246,-26.95 -6.839,-6.03 -16.372,-9.044 -28.61,-9.044 h -63.092 v 21.491 h 67.194 c 3.804,0 6.947,1.458 9.449,4.383 2.494,2.928 3.74,6.474 3.74,10.66 0,3.938 -1.246,7.365 -3.74,10.292 -2.502,2.924 -5.645,4.388 -9.449,4.388 h -34.58 c -7.125,0 -13.159,1.074 -18.092,3.221 -4.931,2.154 -8.912,4.954 -11.942,8.42 -3.027,3.461 -5.228,7.309 -6.596,11.546 -1.37,4.24 -2.048,8.448 -2.048,12.629 0,5.01 0.709,9.696 2.136,14.053 1.423,4.359 3.715,8.208 6.869,11.553 3.145,3.34 7.154,5.966 12.025,7.876 4.871,1.911 10.753,2.865 17.648,2.865 H -8.018 V 65.718 h -64.701 c -1.902,0 -3.686,-0.389 -5.347,-1.165 -1.675,-0.779 -3.122,-1.823 -4.369,-3.134 -1.248,-1.315 -2.262,-2.839 -3.033,-4.569 -0.769,-1.731 -1.152,-3.552 -1.152,-5.457 0,-4.06 1.362,-7.493 4.097,-10.297 2.729,-2.806 6.064,-4.209 9.978,-4.209 h 34.052 c 11.875,0 21.257,-3.017 28.158,-9.039 C -3.449,21.813 0,12.832 0,0.894 Z" /></g><g
           transform="translate(236.6102,203.875)"
           id="g44"><path
             id="path46"
             style="fill:#63656a;fill-opacity:1;fill-rule:nonzero;stroke:none"
             d="M 0,0 -5.658,16.441 -6.396,0.164 h -5.207 l 1.312,27.347 H -4.92 L 1.763,8.077 7.749,27.511 h 5.412 L 14.473,0.164 H 9.266 L 8.528,16.277 3.485,0 Z" /></g><g
           transform="translate(286.0765,233.8047)"
           id="g48"><path
             id="path50"
             style="fill:#63656a;fill-opacity:1;fill-rule:nonzero;stroke:none"
             d="M 0,0 C -0.957,0 -1.675,0.28 -2.152,0.841 -2.631,1.4 -2.87,2.022 -2.87,2.706 c 0,0.656 0.239,1.265 0.718,1.825 0.477,0.56 1.195,0.84 2.152,0.84 0.929,0 1.626,-0.28 2.091,-0.84 C 2.555,3.971 2.788,3.362 2.788,2.706 2.788,2.022 2.555,1.4 2.091,0.841 1.626,0.28 0.929,0 0,0 m -8.528,0 c -0.957,0 -1.675,0.28 -2.153,0.841 -0.478,0.559 -0.717,1.181 -0.717,1.865 0,0.656 0.239,1.265 0.717,1.825 0.478,0.56 1.196,0.84 2.153,0.84 0.929,0 1.626,-0.28 2.091,-0.84 C -5.973,3.971 -5.74,3.362 -5.74,2.706 -5.74,2.022 -5.973,1.4 -6.437,0.841 -6.902,0.28 -7.599,0 -8.528,0 m 3.854,-30.34 c -2.324,0 -4.319,0.506 -5.986,1.518 -1.695,1.038 -2.877,2.316 -3.547,3.833 -0.669,1.517 -1.004,3.054 -1.004,4.612 v 17.958 h 5.248 v -17.425 c 0,-1.639 0.457,-2.986 1.374,-4.038 0.915,-1.053 2.234,-1.579 3.956,-1.579 1.722,0 3.027,0.526 3.915,1.579 0.888,1.052 1.333,2.399 1.333,4.038 v 17.425 h 5.248 v -17.958 c 0,-1.558 -0.274,-2.952 -0.82,-4.182 -0.547,-1.23 -1.298,-2.275 -2.255,-3.136 -0.957,-0.861 -2.071,-1.517 -3.342,-1.968 -1.271,-0.451 -2.644,-0.677 -4.12,-0.677" /></g><g
           transform="translate(312.4193,204.0391)"
           id="g52"><path
             id="path54"
             style="fill:#63656a;fill-opacity:1;fill-rule:nonzero;stroke:none"
             d="M 0,0 V 27.347 H 5.248 V 16.523 H 15.58 v 10.824 h 5.248 V 0 H 15.58 V 11.562 H 5.248 V 0 Z" /></g><g
           transform="translate(353.8904,204.0391)"
           id="g56"><path
             id="path58"
             style="fill:#63656a;fill-opacity:1;fill-rule:nonzero;stroke:none"
             d="M 0,0 V 27.347 H 17.835 V 22.386 H 5.248 V 16.154 H 15.662 V 11.193 H 5.248 V 4.961 H 18.737 V 0 Z" /></g><g
           transform="translate(391.3436,204.0391)"
           id="g60"><path
             id="path62"
             style="fill:#63656a;fill-opacity:1;fill-rule:nonzero;stroke:none"
             d="M 0,0 V 27.347 H 5.371 L 15.908,10.291 v 17.056 h 5.166 V 0 H 16.481 L 5.207,18.081 V 0 Z" /></g><g
           transform="translate(438.2669,208.959)"
           id="g64"><path
             id="path66"
             style="fill:#63656a;fill-opacity:1;fill-rule:nonzero;stroke:none"
             d="m 0,0 h 2.132 c 1.913,0 3.471,0.342 4.674,1.025 1.257,0.683 2.186,1.729 2.788,3.136 0.6,1.408 0.902,2.904 0.902,4.49 0,1.558 -0.273,3.027 -0.82,4.408 -0.547,1.379 -1.394,2.453 -2.542,3.218 -0.602,0.41 -1.347,0.717 -2.235,0.922 -0.888,0.205 -1.77,0.308 -2.644,0.308 H 0 Z M -5.248,-4.92 V 22.427 H 2.46 c 0.983,0 2.077,-0.082 3.28,-0.246 1.202,-0.164 2.35,-0.492 3.444,-0.984 1.722,-0.847 3.116,-2.105 4.182,-3.772 1.093,-1.64 1.777,-3.238 2.05,-4.797 0.136,-0.793 0.246,-1.496 0.328,-2.111 0.082,-0.616 0.109,-1.156 0.082,-1.62 C 15.88,7.175 15.668,5.597 15.19,4.161 14.712,2.727 14.124,1.469 13.428,0.39 12.73,-0.69 11.985,-1.565 11.192,-2.234 10.399,-2.904 9.717,-3.335 9.143,-3.526 7.284,-4.455 5.125,-4.92 2.665,-4.92 Z" /></g><path
           id="path68"
           style="fill:#63656a;fill-opacity:1;fill-rule:nonzero;stroke:none"
           d="m 473.383,231.386 h 5.248 v -27.347 h -5.248 z m 2.829,2.296 c -0.82,0 -1.504,0.314 -2.05,0.943 -0.547,0.629 -0.82,1.366 -0.82,2.214 0,0.847 0.273,1.585 0.82,2.214 0.546,0.629 1.23,0.943 2.05,0.943 0.847,0 1.544,-0.314 2.091,-0.943 0.546,-0.629 0.82,-1.367 0.82,-2.214 0,-0.848 -0.274,-1.585 -0.82,-2.214 -0.547,-0.629 -1.244,-0.943 -2.091,-0.943" /><g
           transform="translate(506.8177,203.4649)"
           id="g70"><path
             id="path72"
             style="fill:#63656a;fill-opacity:1;fill-rule:nonzero;stroke:none"
             d="M 0,0 C -1.23,0 -2.364,0.109 -3.403,0.328 -4.442,0.547 -5.357,0.8 -6.15,1.087 -6.943,1.374 -7.605,1.667 -8.139,1.968 -8.672,2.269 -9.062,2.515 -9.307,2.706 l 2.214,4.551 C -6.847,7.038 -6.506,6.778 -6.068,6.479 -5.631,6.177 -5.119,5.89 -4.53,5.617 -3.943,5.344 -3.273,5.118 -2.521,4.94 c 0.75,-0.177 1.578,-0.266 2.48,-0.266 1.312,0 2.344,0.287 3.096,0.861 0.751,0.574 1.127,1.339 1.127,2.296 0,1.148 -0.369,2.036 -1.107,2.665 -0.793,0.656 -2.406,1.407 -4.838,2.255 -2.023,0.574 -3.622,1.339 -4.798,2.296 -0.573,0.492 -1.031,0.991 -1.373,1.497 -0.341,0.505 -0.594,1.004 -0.758,1.496 -0.164,0.492 -0.267,0.978 -0.308,1.456 -0.041,0.478 -0.048,0.936 -0.021,1.373 0,1.722 0.424,3.171 1.272,4.346 0.847,1.23 1.995,2.084 3.444,2.562 1.449,0.479 2.924,0.718 4.428,0.718 1.12,0 2.146,-0.109 3.075,-0.328 0.929,-0.219 1.77,-0.499 2.522,-0.84 0.751,-0.343 1.421,-0.738 2.009,-1.189 0.586,-0.451 1.085,-0.909 1.496,-1.373 l -2.747,-3.65 c -0.329,0.383 -0.787,0.751 -1.374,1.108 -0.587,0.354 -1.209,0.669 -1.865,0.942 -0.656,0.273 -1.285,0.479 -1.886,0.615 -0.602,0.137 -1.081,0.191 -1.435,0.164 -1.422,0 -2.419,-0.28 -2.993,-0.84 -0.574,-0.561 -0.862,-1.238 -0.862,-2.03 0,-0.957 0.329,-1.68 0.985,-2.173 0.354,-0.246 0.882,-0.533 1.578,-0.861 0.697,-0.328 1.593,-0.684 2.686,-1.065 2.432,-0.848 4.25,-1.791 5.453,-2.829 C 7.968,13.134 8.691,12.108 8.938,11.07 9.074,10.523 9.177,9.997 9.245,9.492 9.313,8.985 9.361,8.501 9.389,8.036 9.389,6.177 8.828,4.564 7.708,3.198 6.587,1.886 5.303,1.025 3.854,0.615 2.405,0.205 1.12,0 0,0" /></g><g
           transform="translate(535.2513,204.0391)"
           id="g74"><path
             id="path76"
             style="fill:#63656a;fill-opacity:1;fill-rule:nonzero;stroke:none"
             d="M 0,0 V 27.347 H 5.248 V 4.961 h 12.71 V 0 Z" /></g><path
           id="path78"
           style="fill:#63656a;fill-opacity:1;fill-rule:nonzero;stroke:none"
           d="m 571.639,231.386 h 5.248 v -27.347 h -5.248 z m 2.829,2.296 c -0.82,0 -1.504,0.314 -2.05,0.943 -0.548,0.629 -0.82,1.366 -0.82,2.214 0,0.847 0.272,1.585 0.82,2.214 0.546,0.629 1.23,0.943 2.05,0.943 0.847,0 1.544,-0.314 2.091,-0.943 0.546,-0.629 0.82,-1.367 0.82,-2.214 0,-0.848 -0.274,-1.585 -0.82,-2.214 -0.547,-0.629 -1.244,-0.943 -2.091,-0.943" /><g
           transform="translate(597.5296,204.0391)"
           id="g80"><path
             id="path82"
             style="fill:#63656a;fill-opacity:1;fill-rule:nonzero;stroke:none"
             d="M 0,0 V 27.347 H 5.248 V 16.318 h 2.747 c 0.519,0 0.97,0.129 1.353,0.389 0.382,0.26 0.779,0.868 1.189,1.825 l 3.895,8.815 h 5.535 l -4.305,-9.553 c -0.384,-0.82 -0.752,-1.449 -1.107,-1.886 -0.356,-0.437 -0.793,-0.806 -1.312,-1.107 0.628,-0.328 1.141,-0.738 1.537,-1.23 0.396,-0.492 0.744,-1.134 1.046,-1.927 L 20.459,0 H 14.76 l -3.363,8.528 c -0.437,1.093 -0.86,1.9 -1.27,2.419 -0.41,0.519 -1.012,0.779 -1.804,0.779 H 5.248 V 0 Z" /></g><g
           transform="translate(222.6701,250.7038)"
           id="g84"><path
             id="path86"
             style="fill:none;stroke:#007cbb;stroke-width:5;stroke-linecap:butt;stroke-linejoin:miter;stroke-miterlimit:10;stroke-dasharray:none;stroke-opacity:1"
             d="M 0,0 H 396.55" /></g></g></g></g></svg>
