<svg xmlns="http://www.w3.org/2000/svg" width="157" height="24" viewBox="0 0 157 24">
    <g fill="none" fill-rule="evenodd">
        <path fill="#141111" d="M38.943 15.457V4.036h3.995v11.53c0 2.733 1.313 4.59 4.241 4.59s4.241-1.857 4.241-4.59V4.036h3.995v11.42c0 5.712-3.83 8.39-8.236 8.39-4.405 0-8.236-2.678-8.236-8.39M61.808 10.867c.657-1.23 2.135-2.077 4.269-2.077 3.448 0 5.281 2.295 5.281 5.71v8.935h-3.886v-8.497c0-1.667-.711-2.814-2.435-2.814-1.888 0-2.928 1.202-2.928 3.114v8.197h-3.885V9.118h3.584v1.749M74.043 23.435h3.886V9.118h-3.886v14.317zm-.41-18.498c0-1.366.985-2.35 2.353-2.35 1.368 0 2.353.984 2.353 2.35 0 1.367-.985 2.323-2.353 2.323-1.368 0-2.353-.956-2.353-2.323zM90.789 9.118h4.022l-5.746 14.317h-3.612L79.707 9.118h4.104l3.475 9.645 3.503-9.645M98.843 14.61h6.512c-.273-1.612-1.45-2.705-3.256-2.705-1.778 0-2.928 1.066-3.256 2.705zm-.055 2.787c.274 1.967 1.533 3.033 3.475 3.033 1.177 0 2.299-.52 2.764-1.558h3.913c-.848 2.897-3.475 4.891-6.786 4.891-4.241 0-7.224-3.115-7.224-7.514 0-4.235 2.955-7.459 7.197-7.459 4.24 0 7.114 3.224 7.114 7.46 0 .628-.055 1.147-.055 1.147H98.788zM119.31 12.643s-.411-.082-.767-.082c-2.27 0-3.448 1.12-3.448 3.743v7.131h-3.885V9.118h3.584v1.858c.52-.847 1.615-1.995 4.05-1.995.137 0 .465.028.465.028v3.634M121.222 23.435h3.886V2.943h-3.886zM127.793 23.435h3.886V9.118h-3.886v14.317zm-.41-18.498c0-1.366.985-2.35 2.353-2.35 1.368 0 2.353.984 2.353 2.35 0 1.367-.985 2.323-2.353 2.323-1.368 0-2.353-.956-2.353-2.323zM133.688 18.79h3.94c.055.957.766 1.858 2.38 1.858 1.478 0 2.245-.519 2.245-1.311 0-2.405-7.963-.137-7.963-5.82 0-2.596 2.216-4.727 5.746-4.727 4.296 0 5.774 2.732 5.883 4.836h-3.749c-.082-.902-.766-1.721-2.161-1.721-1.259 0-1.97.601-1.97 1.393 0 2.405 7.935 0 7.935 5.875 0 2.568-2.19 4.59-6.074 4.59-4.488 0-6.02-2.295-6.212-4.973M156.397 23.347s-1.066.17-2.244.17c-3.146 0-4.405-1.612-4.405-4.371v-6.968h-2.717v-3.06h2.717V6.143l3.885-.963v3.938h3.155v3.06h-3.155v6.558c0 .956.438 1.393 1.451 1.393.52 0 1.313-.14 1.313-.14v3.358"/>
        <path fill="#DD2F4D" d="M6.49 11.779l9.087-6.805 9.087 6.805-9.087 6.805L6.49 11.78zm24.664 0L15.577.113 0 11.779l15.577 11.666 8.43-6.314v4.86l3.895-2.915v-4.861l3.252-2.436z"/>
    </g>
</svg>
